<?xml version="1.0" standalone="no"?>
<!DOCTYPE svg PUBLIC "-//W3C//DTD SVG 20010904//EN"
 "http://www.w3.org/TR/2001/REC-SVG-20010904/DTD/svg10.dtd">
<svg version="1.0" xmlns="http://www.w3.org/2000/svg"
 width="267.000000pt" height="267.000000pt" viewBox="0 0 267.000000 267.000000"
 preserveAspectRatio="xMidYMid meet">
<metadata>
Created by potrace 1.14, written by Peter Selinger 2001-2017
</metadata>
<g transform="translate(0.000000,267.000000) scale(0.100000,-0.100000)"
fill="#000000" stroke="none">
<path d="M0 1680 c0 -621 4 -990 10 -990 11 0 30 64 30 103 0 15 9 37 20 49
11 12 20 32 20 45 0 13 4 23 8 23 5 0 17 18 28 40 10 22 25 40 32 40 7 0 12
12 12 29 0 16 6 34 14 40 8 7 17 30 21 52 4 21 10 39 14 39 3 0 17 18 31 40
14 22 30 40 36 40 7 0 15 11 18 25 4 14 11 25 16 25 6 0 10 5 10 10 0 6 11 22
25 36 14 14 25 29 25 33 0 13 36 51 49 51 16 0 14 11 -6 25 -14 11 -13 13 10
19 18 4 27 13 27 25 0 11 7 26 15 35 8 8 15 19 15 25 0 6 7 11 15 11 8 0 19 9
25 20 6 11 15 18 19 15 10 -6 21 18 21 46 0 11 4 18 9 14 6 -3 6 -17 -1 -35
-5 -16 -8 -35 -5 -42 3 -7 6 -4 6 8 1 11 8 29 17 40 15 18 15 18 10 -11 -2
-17 -1 -37 5 -45 6 -11 9 -7 10 15 0 23 5 15 19 -34 11 -35 17 -68 14 -73 -3
-5 -3 -25 1 -46 6 -37 6 -37 55 -37 57 0 65 -5 56 -40 -6 -24 -8 -25 -29 -10
-23 16 -67 21 -67 7 0 -8 88 -37 103 -34 4 1 7 -6 7 -16 0 -14 2 -15 10 -2 6
10 10 11 10 3 0 -7 11 -37 25 -67 14 -30 25 -61 25 -68 0 -8 4 -18 10 -24 17
-17 34 -165 22 -185 -7 -10 -8 -20 -3 -23 5 -3 12 -23 16 -43 7 -35 8 -36 15
-13 6 22 9 19 24 -30 31 -102 67 -163 111 -187 22 -12 51 -29 65 -36 14 -8 36
-18 49 -22 14 -4 48 -23 77 -41 29 -19 57 -34 62 -34 6 0 12 -6 15 -13 13 -35
154 -80 287 -92 54 -4 91 -13 103 -23 22 -20 22 -73 -1 -116 -16 -29 -17 -45
-10 -97 4 -34 10 -65 13 -67 8 -9 55 40 55 57 0 11 3 12 12 3 9 -9 7 -26 -5
-72 -9 -33 -17 -69 -17 -80 0 -28 27 -25 54 6 19 23 24 24 37 13 49 -47 51
-46 44 7 l-8 49 27 -24 c14 -14 26 -35 26 -48 l0 -23 155 0 c117 0 155 3 155
13 0 17 -64 139 -99 191 -49 71 -150 156 -228 193 l-72 35 4 46 c3 26 7 78 9
115 5 65 8 72 56 129 105 125 123 185 126 423 3 223 13 375 25 375 5 0 9 7 9
16 0 9 5 12 13 8 10 -6 10 -4 0 7 -14 14 -18 33 -5 26 4 -3 7 5 7 18 0 17 -3
21 -12 13 -7 -6 -10 -14 -7 -19 3 -5 1 -9 -5 -9 -19 0 -21 18 -5 35 16 15 16
16 -2 13 -13 -2 -20 4 -22 20 -2 12 1 22 7 22 6 0 11 -3 11 -7 0 -5 12 -13 26
-20 22 -10 25 -10 20 3 -13 34 13 1 34 -42 26 -57 39 -70 84 -89 25 -11 36
-23 41 -45 4 -17 13 -34 21 -37 8 -3 14 -13 14 -23 0 -9 9 -25 20 -35 11 -10
20 -29 20 -42 0 -18 5 -23 26 -23 31 0 53 -25 54 -57 0 -21 14 -28 42 -24 4 0
5 -6 1 -14 -3 -9 4 -23 16 -34 11 -10 21 -28 21 -40 0 -11 4 -21 10 -21 5 0
14 -18 20 -40 6 -22 19 -44 29 -50 10 -5 21 -22 24 -37 19 -98 42 -163 59
-169 23 -7 23 -30 1 -38 -24 -10 -2 -27 25 -20 l22 6 0 949 0 949 -1335 0
-1335 0 0 -990z m1284 405 c61 -3 127 -11 146 -17 19 -7 44 -11 55 -10 11 2
37 -4 57 -13 21 -8 47 -15 59 -15 12 0 35 -11 53 -25 17 -14 53 -44 79 -65 26
-22 58 -45 69 -51 34 -18 61 -47 54 -58 -4 -5 -2 -12 4 -16 5 -3 10 -27 10
-53 0 -26 4 -62 9 -80 10 -33 9 -33 -17 -27 -16 3 -55 -3 -93 -15 -51 -15 -77
-31 -116 -68 -63 -63 -130 -87 -211 -77 -79 10 -219 7 -267 -6 -22 -6 -60 -15
-85 -20 -25 -6 -56 -13 -70 -16 -14 -3 -36 -6 -50 -5 -14 0 -30 -4 -36 -9 -11
-9 -70 -6 -79 3 -3 3 -8 32 -11 66 -8 68 8 139 36 172 17 19 17 23 3 52 -9 17
-15 53 -14 86 1 48 6 62 41 108 22 29 51 64 64 77 49 49 155 102 185 91 7 -2
64 -7 125 -9z m-123 -632 c-19 -3 -50 -15 -70 -29 -20 -13 -42 -24 -49 -24 -7
0 -10 -4 -7 -10 3 -5 1 -10 -4 -10 -14 0 -13 21 2 40 15 19 79 38 127 37 l35
0 -34 -4z m647 -23 c7 -12 18 -18 24 -14 8 5 9 2 5 -9 -10 -26 26 -21 57 8 15
14 31 23 36 20 10 -6 35 -76 32 -87 -1 -5 3 -8 8 -8 28 0 3 -21 -47 -40 -67
-26 -218 -39 -250 -22 -26 14 -55 73 -42 88 5 6 6 13 3 16 -3 3 6 17 19 32 21
23 26 24 43 11 27 -21 62 -18 76 5 16 25 20 25 36 0z m-366 -16 c-2 -10 -7
-46 -11 -79 -14 -104 -27 -115 -171 -135 -87 -12 -172 -4 -201 19 -20 16 -41
104 -23 99 16 -4 52 13 58 27 3 8 14 15 25 15 11 0 26 7 35 15 9 9 17 11 21 5
11 -17 58 -11 81 11 18 17 26 19 42 10 23 -12 69 -15 58 -4 -8 9 63 43 79 39
6 -2 9 -12 7 -22z m138 -54 c7 -21 29 -57 49 -78 36 -39 36 -39 118 -41 58 -2
91 2 110 13 35 18 91 36 112 35 9 0 -2 -9 -24 -20 -22 -10 -31 -17 -19 -14 41
10 53 -21 54 -135 0 -58 0 -122 1 -143 0 -21 -5 -54 -12 -75 -14 -43 -59 -111
-74 -112 -5 0 -19 -14 -30 -30 -11 -17 -39 -44 -63 -61 -24 -17 -60 -47 -80
-66 -102 -95 -214 -105 -395 -37 -51 20 -71 23 -81 15 -10 -8 -16 -7 -26 4 -7
8 -18 15 -24 15 -6 0 -24 11 -41 25 -16 14 -48 40 -70 57 -67 55 -106 101
-128 148 -12 25 -20 48 -19 53 1 4 -2 7 -8 7 -5 0 -12 17 -15 38 -4 20 -11 46
-16 57 -12 25 -31 124 -30 150 0 11 -4 44 -10 73 -6 29 -8 65 -4 81 6 27 10
29 57 33 64 4 80 -10 98 -88 16 -64 37 -84 95 -85 35 -1 37 -2 15 -9 -35 -12
132 -1 195 12 88 18 112 43 150 155 35 107 84 117 115 23z m-619 30 c9 0 19
-7 23 -15 7 -19 8 -19 -36 4 -21 10 -34 21 -31 25 4 3 11 2 17 -4 5 -5 18 -10
27 -10z m1036 -52 c-3 -7 -5 -2 -5 12 0 14 2 19 5 13 2 -7 2 -19 0 -25z"/>
<path d="M1065 1564 c-16 -14 -42 -28 -56 -31 -15 -3 -31 -16 -38 -29 -10 -22
-8 -24 16 -24 15 0 34 6 42 13 39 34 132 51 191 36 8 -2 14 1 13 8 -2 8 8 11
32 8 27 -4 35 -1 35 11 0 8 -5 12 -10 9 -6 -4 -18 -1 -26 6 -13 10 -17 10 -24
-1 -7 -11 -12 -11 -32 2 -12 8 -43 16 -68 16 -35 2 -51 -4 -75 -24z m69 -3 c3
-5 -1 -11 -9 -14 -9 -4 -12 -1 -8 9 6 16 10 17 17 5z"/>
<path d="M1641 1156 c-55 -46 -84 -53 -127 -32 -43 20 -50 20 -99 -4 -31 -14
-36 -20 -23 -25 9 -4 25 -2 37 4 30 16 62 13 99 -9 50 -31 99 -26 192 20 19 9
25 39 11 53 -9 9 -14 8 -21 -3 -7 -12 -11 -10 -18 9 l-8 23 -43 -36z"/>
<path d="M1809 1016 c-2 -2 -22 -7 -44 -10 -22 -4 -57 -18 -78 -32 -54 -35
-127 -45 -299 -37 -99 4 -148 3 -148 -4 0 -6 15 -14 33 -18 94 -21 111 -23
129 -11 14 8 20 8 27 -2 7 -11 9 -11 13 0 4 10 32 14 109 15 93 2 101 1 75
-11 -27 -12 -27 -13 -7 -19 11 -3 23 -1 26 4 3 4 29 11 56 15 69 9 140 70 120
102 -4 7 -9 10 -12 8z"/>
<path d="M1733 899 c-25 -9 -31 -29 -9 -29 14 0 42 27 35 34 -2 2 -14 0 -26
-5z"/>
<path d="M1558 883 c7 -3 16 -2 19 1 4 3 -2 6 -13 5 -11 0 -14 -3 -6 -6z"/>
<path d="M787 1243 c-4 -3 -7 -11 -7 -17 0 -6 5 -5 12 2 6 6 9 14 7 17 -3 3
-9 2 -12 -2z"/>
<path d="M902 820 c0 -14 2 -19 5 -12 2 6 2 18 0 25 -3 6 -5 1 -5 -13z"/>
<path d="M835 460 c-64 -10 -133 -29 -166 -45 -38 -20 -79 -85 -79 -126 0 -41
-15 -59 -49 -59 -19 0 -45 -20 -94 -71 -65 -68 -123 -146 -114 -155 2 -2 199
-3 438 -2 l434 3 -71 37 c-40 21 -78 48 -86 60 -9 13 -43 53 -77 91 -33 37
-61 76 -61 86 0 10 7 40 15 67 8 27 15 66 15 87 0 42 -3 42 -105 27z"/>
</g>
</svg>
